<svg id="visual" viewBox="0 0 900 600" width="900" height="600" xmlns="http://www.w3.org/2000/svg" xmlns:xlink="http://www.w3.org/1999/xlink" version="1.1"><rect x="0" y="0" width="900" height="600" fill="#000c1600"></rect><path d="M0 454L8.8 453.5C17.7 453 35.3 452 53 462C70.7 472 88.3 493 106 501.2C123.7 509.3 141.3 504.7 159 496.3C176.7 488 194.3 476 212 478.8C229.7 481.7 247.3 499.3 265 497.7C282.7 496 300.3 475 318 462.3C335.7 449.7 353.3 445.3 371 457.2C388.7 469 406.3 497 423.8 501.3C441.3 505.7 458.7 486.3 476.2 481.8C493.7 477.3 511.3 487.7 529 486.5C546.7 485.3 564.3 472.7 582 473.5C599.7 474.3 617.3 488.7 635 490C652.7 491.3 670.3 479.7 688 482.5C705.7 485.3 723.3 502.7 741 513C758.7 523.3 776.3 526.7 794 521C811.7 515.3 829.3 500.7 847 492.8C864.7 485 882.3 484 891.2 483.5L900 483L900 601L891.2 601C882.3 601 864.7 601 847 601C829.3 601 811.7 601 794 601C776.3 601 758.7 601 741 601C723.3 601 705.7 601 688 601C670.3 601 652.7 601 635 601C617.3 601 599.7 601 582 601C564.3 601 546.7 601 529 601C511.3 601 493.7 601 476.2 601C458.7 601 441.3 601 423.8 601C406.3 601 388.7 601 371 601C353.3 601 335.7 601 318 601C300.3 601 282.7 601 265 601C247.3 601 229.7 601 212 601C194.3 601 176.7 601 159 601C141.3 601 123.7 601 106 601C88.3 601 70.7 601 53 601C35.3 601 17.7 601 8.8 601L0 601Z" fill="#e1746c"></path><path d="M0 463L8.8 462.2C17.7 461.3 35.3 459.7 53 469C70.7 478.3 88.3 498.7 106 503.2C123.7 507.7 141.3 496.3 159 489.3C176.7 482.3 194.3 479.7 212 491.3C229.7 503 247.3 529 265 530.2C282.7 531.3 300.3 507.7 318 503.5C335.7 499.3 353.3 514.7 371 512C388.7 509.3 406.3 488.7 423.8 476.7C441.3 464.7 458.7 461.3 476.2 472.2C493.7 483 511.3 508 529 512.5C546.7 517 564.3 501 582 491C599.7 481 617.3 477 635 488C652.7 499 670.3 525 688 523.2C705.7 521.3 723.3 491.7 741 485.5C758.7 479.3 776.3 496.7 794 504.2C811.7 511.7 829.3 509.3 847 499.7C864.7 490 882.3 473 891.2 464.5L900 456L900 601L891.2 601C882.3 601 864.7 601 847 601C829.3 601 811.7 601 794 601C776.3 601 758.7 601 741 601C723.3 601 705.7 601 688 601C670.3 601 652.7 601 635 601C617.3 601 599.7 601 582 601C564.3 601 546.7 601 529 601C511.3 601 493.7 601 476.2 601C458.7 601 441.3 601 423.8 601C406.3 601 388.7 601 371 601C353.3 601 335.7 601 318 601C300.3 601 282.7 601 265 601C247.3 601 229.7 601 212 601C194.3 601 176.7 601 159 601C141.3 601 123.7 601 106 601C88.3 601 70.7 601 53 601C35.3 601 17.7 601 8.8 601L0 601Z" fill="#e16d69"></path><path d="M0 561L8.8 558.2C17.7 555.3 35.3 549.7 53 542C70.7 534.3 88.3 524.7 106 516.3C123.7 508 141.3 501 159 504.2C176.7 507.3 194.3 520.7 212 528.7C229.7 536.7 247.3 539.3 265 527.5C282.7 515.7 300.3 489.3 318 476.3C335.7 463.3 353.3 463.7 371 473.3C388.7 483 406.3 502 423.8 507.8C441.3 513.7 458.7 506.3 476.2 500.8C493.7 495.3 511.3 491.7 529 493.2C546.7 494.7 564.3 501.3 582 504.5C599.7 507.7 617.3 507.3 635 503.2C652.7 499 670.3 491 688 489.8C705.7 488.7 723.3 494.3 741 491.7C758.7 489 776.3 478 794 480.2C811.7 482.3 829.3 497.7 847 513.5C864.7 529.3 882.3 545.7 891.2 553.8L900 562L900 601L891.2 601C882.3 601 864.7 601 847 601C829.3 601 811.7 601 794 601C776.3 601 758.7 601 741 601C723.3 601 705.7 601 688 601C670.3 601 652.7 601 635 601C617.3 601 599.7 601 582 601C564.3 601 546.7 601 529 601C511.3 601 493.7 601 476.2 601C458.7 601 441.3 601 423.8 601C406.3 601 388.7 601 371 601C353.3 601 335.7 601 318 601C300.3 601 282.7 601 265 601C247.3 601 229.7 601 212 601C194.3 601 176.7 601 159 601C141.3 601 123.7 601 106 601C88.3 601 70.7 601 53 601C35.3 601 17.7 601 8.8 601L0 601Z" fill="#e26666"></path><path d="M0 483L8.8 492.5C17.7 502 35.3 521 53 534.2C70.7 547.3 88.3 554.7 106 552.7C123.7 550.7 141.3 539.3 159 528.2C176.7 517 194.3 506 212 499C229.7 492 247.3 489 265 498.2C282.7 507.3 300.3 528.7 318 534.3C335.7 540 353.3 530 371 518.7C388.7 507.3 406.3 494.7 423.8 494C441.3 493.3 458.7 504.7 476.2 516.8C493.7 529 511.3 542 529 548.5C546.7 555 564.3 555 582 552.8C599.7 550.7 617.3 546.3 635 537.5C652.7 528.7 670.3 515.3 688 511.3C705.7 507.3 723.3 512.7 741 511.7C758.7 510.7 776.3 503.3 794 505C811.7 506.7 829.3 517.3 847 518.2C864.7 519 882.3 510 891.2 505.5L900 501L900 601L891.2 601C882.3 601 864.7 601 847 601C829.3 601 811.7 601 794 601C776.3 601 758.7 601 741 601C723.3 601 705.7 601 688 601C670.3 601 652.7 601 635 601C617.3 601 599.7 601 582 601C564.3 601 546.7 601 529 601C511.3 601 493.7 601 476.2 601C458.7 601 441.3 601 423.8 601C406.3 601 388.7 601 371 601C353.3 601 335.7 601 318 601C300.3 601 282.7 601 265 601C247.3 601 229.7 601 212 601C194.3 601 176.7 601 159 601C141.3 601 123.7 601 106 601C88.3 601 70.7 601 53 601C35.3 601 17.7 601 8.8 601L0 601Z" fill="#e25e64"></path><path d="M0 562L8.8 551.3C17.7 540.7 35.3 519.3 53 512.7C70.7 506 88.3 514 106 525.5C123.7 537 141.3 552 159 554C176.7 556 194.3 545 212 542C229.7 539 247.3 544 265 547.5C282.7 551 300.3 553 318 554.5C335.7 556 353.3 557 371 551.7C388.7 546.3 406.3 534.7 423.8 533.2C441.3 531.7 458.7 540.3 476.2 546.3C493.7 552.3 511.3 555.7 529 555.3C546.7 555 564.3 551 582 544C599.7 537 617.3 527 635 517.7C652.7 508.3 670.3 499.7 688 499.8C705.7 500 723.3 509 741 513.5C758.7 518 776.3 518 794 513.5C811.7 509 829.3 500 847 506.3C864.7 512.7 882.3 534.3 891.2 545.2L900 556L900 601L891.2 601C882.3 601 864.7 601 847 601C829.3 601 811.7 601 794 601C776.3 601 758.7 601 741 601C723.3 601 705.7 601 688 601C670.3 601 652.7 601 635 601C617.3 601 599.7 601 582 601C564.3 601 546.7 601 529 601C511.3 601 493.7 601 476.2 601C458.7 601 441.3 601 423.8 601C406.3 601 388.7 601 371 601C353.3 601 335.7 601 318 601C300.3 601 282.7 601 265 601C247.3 601 229.7 601 212 601C194.3 601 176.7 601 159 601C141.3 601 123.7 601 106 601C88.3 601 70.7 601 53 601C35.3 601 17.7 601 8.8 601L0 601Z" fill="#e25662"></path><path d="M0 515L8.8 522.5C17.7 530 35.3 545 53 547.7C70.7 550.3 88.3 540.7 106 540.3C123.7 540 141.3 549 159 546.8C176.7 544.7 194.3 531.3 212 523.8C229.7 516.3 247.3 514.7 265 522.2C282.7 529.7 300.3 546.3 318 544.8C335.7 543.3 353.3 523.7 371 521.3C388.7 519 406.3 534 423.8 540C441.3 546 458.7 543 476.2 538.8C493.7 534.7 511.3 529.3 529 531.7C546.7 534 564.3 544 582 550C599.7 556 617.3 558 635 558.7C652.7 559.3 670.3 558.7 688 552.7C705.7 546.7 723.3 535.3 741 530C758.7 524.7 776.3 525.3 794 532.2C811.7 539 829.3 552 847 548.5C864.7 545 882.3 525 891.2 515L900 505L900 601L891.2 601C882.3 601 864.7 601 847 601C829.3 601 811.7 601 794 601C776.3 601 758.7 601 741 601C723.3 601 705.7 601 688 601C670.3 601 652.7 601 635 601C617.3 601 599.7 601 582 601C564.3 601 546.7 601 529 601C511.3 601 493.7 601 476.2 601C458.7 601 441.3 601 423.8 601C406.3 601 388.7 601 371 601C353.3 601 335.7 601 318 601C300.3 601 282.7 601 265 601C247.3 601 229.7 601 212 601C194.3 601 176.7 601 159 601C141.3 601 123.7 601 106 601C88.3 601 70.7 601 53 601C35.3 601 17.7 601 8.8 601L0 601Z" fill="#e24e60"></path><path d="M0 578L8.8 574.7C17.7 571.3 35.3 564.7 53 555.3C70.7 546 88.3 534 106 534.8C123.7 535.7 141.3 549.3 159 555.5C176.7 561.7 194.3 560.3 212 555.3C229.7 550.3 247.3 541.7 265 544.3C282.7 547 300.3 561 318 563.5C335.7 566 353.3 557 371 554.8C388.7 552.7 406.3 557.3 423.8 552.8C441.3 548.3 458.7 534.7 476.2 533.7C493.7 532.7 511.3 544.3 529 546.7C546.7 549 564.3 542 582 538.2C599.7 534.3 617.3 533.7 635 533.5C652.7 533.3 670.3 533.7 688 539.7C705.7 545.7 723.3 557.3 741 564.2C758.7 571 776.3 573 794 570.8C811.7 568.7 829.3 562.3 847 554.8C864.7 547.3 882.3 538.7 891.2 534.3L900 530L900 601L891.2 601C882.3 601 864.7 601 847 601C829.3 601 811.7 601 794 601C776.3 601 758.7 601 741 601C723.3 601 705.7 601 688 601C670.3 601 652.7 601 635 601C617.3 601 599.7 601 582 601C564.3 601 546.7 601 529 601C511.3 601 493.7 601 476.2 601C458.7 601 441.3 601 423.8 601C406.3 601 388.7 601 371 601C353.3 601 335.7 601 318 601C300.3 601 282.7 601 265 601C247.3 601 229.7 601 212 601C194.3 601 176.7 601 159 601C141.3 601 123.7 601 106 601C88.3 601 70.7 601 53 601C35.3 601 17.7 601 8.8 601L0 601Z" fill="#e2455f"></path><path d="M0 552L8.8 548.5C17.7 545 35.3 538 53 535.5C70.7 533 88.3 535 106 537.7C123.7 540.3 141.3 543.7 159 549.8C176.7 556 194.3 565 212 568.5C229.7 572 247.3 570 265 566.5C282.7 563 300.3 558 318 556.7C335.7 555.3 353.3 557.7 371 561.2C388.7 564.7 406.3 569.3 423.8 568C441.3 566.7 458.7 559.3 476.2 555.7C493.7 552 511.3 552 529 555C546.7 558 564.3 564 582 561.3C599.7 558.7 617.3 547.3 635 544.7C652.7 542 670.3 548 688 552.8C705.7 557.7 723.3 561.3 741 565.3C758.7 569.3 776.3 573.7 794 570.2C811.7 566.7 829.3 555.3 847 555.8C864.7 556.3 882.3 568.7 891.2 574.8L900 581L900 601L891.2 601C882.3 601 864.7 601 847 601C829.3 601 811.7 601 794 601C776.3 601 758.7 601 741 601C723.3 601 705.7 601 688 601C670.3 601 652.7 601 635 601C617.3 601 599.7 601 582 601C564.3 601 546.7 601 529 601C511.3 601 493.7 601 476.2 601C458.7 601 441.3 601 423.8 601C406.3 601 388.7 601 371 601C353.3 601 335.7 601 318 601C300.3 601 282.7 601 265 601C247.3 601 229.7 601 212 601C194.3 601 176.7 601 159 601C141.3 601 123.7 601 106 601C88.3 601 70.7 601 53 601C35.3 601 17.7 601 8.8 601L0 601Z" fill="#e23b5e"></path><path d="M0 587L8.8 580.8C17.7 574.7 35.3 562.3 53 559.5C70.7 556.7 88.3 563.3 106 569.3C123.7 575.3 141.3 580.7 159 580.7C176.7 580.7 194.3 575.3 212 569C229.7 562.7 247.3 555.3 265 551.3C282.7 547.3 300.3 546.7 318 550.5C335.7 554.3 353.3 562.7 371 563.7C388.7 564.7 406.3 558.3 423.8 557.2C441.3 556 458.7 560 476.2 561.3C493.7 562.7 511.3 561.3 529 563C546.7 564.7 564.3 569.3 582 566.8C599.7 564.3 617.3 554.7 635 552.3C652.7 550 670.3 555 688 557C705.7 559 723.3 558 741 562.3C758.7 566.7 776.3 576.3 794 577.2C811.7 578 829.3 570 847 567C864.7 564 882.3 566 891.2 567L900 568L900 601L891.2 601C882.3 601 864.7 601 847 601C829.3 601 811.7 601 794 601C776.3 601 758.7 601 741 601C723.3 601 705.7 601 688 601C670.3 601 652.7 601 635 601C617.3 601 599.7 601 582 601C564.3 601 546.7 601 529 601C511.3 601 493.7 601 476.2 601C458.7 601 441.3 601 423.8 601C406.3 601 388.7 601 371 601C353.3 601 335.7 601 318 601C300.3 601 282.7 601 265 601C247.3 601 229.7 601 212 601C194.3 601 176.7 601 159 601C141.3 601 123.7 601 106 601C88.3 601 70.7 601 53 601C35.3 601 17.7 601 8.8 601L0 601Z" fill="#e12e5d"></path><path d="M0 584L8.8 583.3C17.7 582.7 35.3 581.3 53 579.7C70.7 578 88.3 576 106 575C123.7 574 141.3 574 159 573.3C176.7 572.7 194.3 571.3 212 569.3C229.7 567.3 247.3 564.7 265 567.8C282.7 571 300.3 580 318 584.5C335.7 589 353.3 589 371 589.3C388.7 589.7 406.3 590.3 423.8 587.2C441.3 584 458.7 577 476.2 572.2C493.7 567.3 511.3 564.7 529 566.3C546.7 568 564.3 574 582 573.8C599.7 573.7 617.3 567.3 635 565.5C652.7 563.7 670.3 566.3 688 566.8C705.7 567.3 723.3 565.7 741 565.8C758.7 566 776.3 568 794 567.7C811.7 567.3 829.3 564.7 847 565.3C864.7 566 882.3 570 891.2 572L900 574L900 601L891.2 601C882.3 601 864.7 601 847 601C829.3 601 811.7 601 794 601C776.3 601 758.7 601 741 601C723.3 601 705.7 601 688 601C670.3 601 652.7 601 635 601C617.3 601 599.7 601 582 601C564.3 601 546.7 601 529 601C511.3 601 493.7 601 476.2 601C458.7 601 441.3 601 423.8 601C406.3 601 388.7 601 371 601C353.3 601 335.7 601 318 601C300.3 601 282.7 601 265 601C247.3 601 229.7 601 212 601C194.3 601 176.7 601 159 601C141.3 601 123.7 601 106 601C88.3 601 70.7 601 53 601C35.3 601 17.7 601 8.8 601L0 601Z" fill="#e11f5d"></path><path d="M0 579L8.8 578.2C17.7 577.3 35.3 575.7 53 575.3C70.7 575 88.3 576 106 576.5C123.7 577 141.3 577 159 578.2C176.7 579.3 194.3 581.7 212 582.7C229.7 583.7 247.3 583.3 265 582.3C282.7 581.3 300.3 579.7 318 578.5C335.7 577.3 353.3 576.7 371 578.3C388.7 580 406.3 584 423.8 585C441.3 586 458.7 584 476.2 584.8C493.7 585.7 511.3 589.3 529 590.3C546.7 591.3 564.3 589.7 582 588.2C599.7 586.7 617.3 585.3 635 582.7C652.7 580 670.3 576 688 574.8C705.7 573.7 723.3 575.3 741 577.7C758.7 580 776.3 583 794 585C811.7 587 829.3 588 847 586.7C864.7 585.3 882.3 581.7 891.2 579.8L900 578L900 601L891.2 601C882.3 601 864.7 601 847 601C829.3 601 811.7 601 794 601C776.3 601 758.7 601 741 601C723.3 601 705.7 601 688 601C670.3 601 652.7 601 635 601C617.3 601 599.7 601 582 601C564.3 601 546.7 601 529 601C511.3 601 493.7 601 476.2 601C458.7 601 441.3 601 423.8 601C406.3 601 388.7 601 371 601C353.3 601 335.7 601 318 601C300.3 601 282.7 601 265 601C247.3 601 229.7 601 212 601C194.3 601 176.7 601 159 601C141.3 601 123.7 601 106 601C88.3 601 70.7 601 53 601C35.3 601 17.7 601 8.8 601L0 601Z" fill="#e0005d"></path></svg>